<svg width="73" height="35" viewBox="0 0 73 35" fill="none" xmlns="http://www.w3.org/2000/svg">
<path d="M13.9388 12.005C13.9388 7.42 12.1888 4.9 7.63881 4.9C3.01881 4.9 1.19881 7.42 1.19881 12.11V12.775H5.85381V12.005C5.85381 10.045 6.37881 9.205 7.63881 9.205C8.75881 9.205 9.28381 9.73 9.28381 11.27C9.24881 15.225 0.778807 14.49 0.778807 22.505C0.778807 26.53 2.80881 28.35 5.25881 28.35C7.28881 28.35 8.44381 27.44 9.28381 25.445C9.28381 26.075 9.45881 27.405 10.1938 28H14.2888C13.9388 26.81 13.9388 26.04 13.9388 24.64V12.005ZM9.28381 22.61C8.96881 23.1 8.33881 24.045 7.25381 24.045C6.09881 24.045 5.43381 23.205 5.43381 21.7C5.43381 19.005 8.23381 18.235 9.28381 16.52V22.61ZM20.6944 28V-4.17233e-07H16.0394V28H20.6944ZM35.539 12.005C35.539 7.42 33.789 4.9 29.239 4.9C24.619 4.9 22.799 7.42 22.799 12.11V12.775H27.454V12.005C27.454 10.045 27.979 9.205 29.239 9.205C30.359 9.205 30.884 9.73 30.884 11.27C30.849 15.225 22.379 14.49 22.379 22.505C22.379 26.53 24.409 28.35 26.859 28.35C28.889 28.35 30.044 27.44 30.884 25.445C30.884 26.075 31.059 27.405 31.794 28H35.889C35.539 26.81 35.539 26.04 35.539 24.64V12.005ZM30.884 22.61C30.569 23.1 29.939 24.045 28.854 24.045C27.699 24.045 27.034 23.205 27.034 21.7C27.034 19.005 29.834 18.235 30.884 16.52V22.61ZM53.9495 4.9C51.8495 4.9 50.3445 6.405 49.7145 7.98C49.2595 5.915 48.2795 4.9 46.2495 4.9C44.0795 4.9 42.8545 6.475 42.2945 7.805V5.25H37.6395V28H42.2945V11.76C42.2945 9.975 42.8895 9.205 43.9045 9.205C44.8495 9.205 45.3045 9.87 45.3045 11.725V28H49.9945V11.76C49.9945 9.975 50.5545 9.205 51.5695 9.205C52.5495 9.205 53.0045 9.87 53.0045 11.725V28H57.6595V12.11C57.6595 7.175 56.9945 4.9 53.9495 4.9ZM67.5492 21.49C67.5492 23.275 66.9542 24.045 65.7292 24.045C64.5742 24.045 64.0492 23.38 64.0492 21.525V5.25H59.3942V21.14C59.3942 26.075 60.1642 28.35 63.3842 28.35C65.7642 28.35 66.9892 26.705 67.5492 25.445V27.37C67.5492 29.995 66.8492 30.695 65.0992 30.695H60.3742V35H66.2192C71.2592 35 72.2042 32.83 72.2042 27.37V5.25H67.5492V21.49Z" fill="black"/>
</svg>
